<?xml version="1.0" encoding="UTF-8"?>
<svg id="Layer_1" xmlns="http://www.w3.org/2000/svg" version="1.1" viewBox="0 0 405.49 324">
  <!-- Generator: Adobe Illustrator 29.6.1, SVG Export Plug-In . SVG Version: 2.1.1 Build 9)  -->
  <defs>
    <style>
      .st0 {
        fill: #472b29;
      }

      .st1 {
        fill: #bd977c;
      }

      .st2 {
        fill: #c0d078;
      }

      .st3 {
        fill: #836f61;
      }
    </style>
  </defs>
  <g>
    <path class="st3" d="M353.06,324h-3.02v-4.46l-18.14-27.94-30.46-46.8,30.96-154.73,16.7-83.74,4.82-2.95,50.4,80.57c.94,1.58,1.3,3.46.94,5.26l-45.14,228.96c-.65,3.38-3.6,5.83-7.06,5.83Z"/>
    <path class="st1" d="M331.89,291.6l18.14,27.94v4.46h-88.13c-2.3,0-4.54-1.15-5.83-3.02l-32.54-45.58,4.97-3.6-17.06-27h90l30.46,46.8Z"/>
    <polygon class="st3" points="236.63 140.4 216.04 225 215.9 225 192.5 191.66 192.5 190.8 206.03 140.4 236.63 140.4"/>
    <polygon class="st1" points="211.43 244.8 228.5 271.8 223.53 275.4 222.23 273.6 194.3 273.6 194.3 269.14 153.91 212.4 153.83 212.4 138.5 190.8 192.5 190.8 192.5 191.66 215.9 225 216.04 225 211.43 243.94 211.43 244.8"/>
    <path class="st3" d="M194.3,269.14v4.46h-.86l-19.8,46.01c-.65,1.66-1.94,2.95-3.53,3.67l-1.87-2.88-72-75.6,7.34-25.13,8.42-28.73,14.83-50.54h27l-15.34,50.4,15.34,21.6h.07l40.39,56.74Z"/>
    <path class="st1" d="M96.23,244.8l72,75.6,1.87,2.88c-.94.5-1.94.72-3.02.72h-85.9c-1.94,0-3.74-.79-5.11-2.09L2.63,248.4l3.6-3.6h90Z"/>
    <path class="st2" d="M6.23,244.8l-3.6,3.6-.5-.5c-1.94-1.87-2.59-4.68-1.8-7.27l25.85-79.85,4.32,1.44h36.94l-9,28.58-9,28.8h54l.14.07-7.34,25.13H6.23Z"/>
    <polygon class="st2" points="112 190.94 103.58 219.67 103.43 219.6 49.43 219.6 58.43 190.8 111.5 190.8 112 190.94"/>
    <path class="st2" d="M166.43,0v4.46l-14.4,49.54h-83.74l-6.84-2.23,15.12-46.8c.94-2.95,3.74-4.97,6.84-4.97,0,0,83.02,0,83.02,0Z"/>
    <path class="st3" d="M168.23,0c2.23,0,4.39,1.08,5.76,2.88l41.04,54.72,5.4,3.6-7.78,28.66-3.96,14.54h-47.66l14.4-50.4h-23.4l14.4-49.54V0h1.8Z"/>
    <path class="st2" d="M295.1,46.8l-9,43.2h-72.86l-.58-.14,7.78-28.66-5.4-3.6,5.18-10.44c1.22-2.45,3.67-3.96,6.41-3.96h22.54l4.54,3.6h41.4Z"/>
    <path class="st2" d="M347.8,0c2.52,0,4.82,1.3,6.12,3.38l-4.82,2.95-16.7,83.74-.36-.07h-45.94l9-43.2h-41.4l-4.54-3.6,7.85-37.51C257.73,2.38,260.61,0,264.07,0h83.74Z"/>
    <polygon class="st2" points="332.39 90.07 301.43 244.8 211.43 244.8 211.43 243.94 216.04 225 236.63 140.4 206.03 140.4 192.5 190.8 138.5 190.8 153.83 140.4 126.83 140.4 112 190.94 111.5 190.8 58.43 190.8 67.43 162.22 30.5 162.22 26.18 160.78 61.46 51.77 68.3 54 152.03 54 175.43 54 161.03 104.4 208.7 104.4 212.66 89.86 213.23 90 286.1 90 332.03 90 332.39 90.07"/>
  </g>
  <path class="st0" d="M266.97,7.79h.04-.04M86.28,8.09h.04-.04M346.31,10.08l48.92,78.29-44.42,225.55h-87.33l-32.98-46.18c-1.89-2.65-4.95-4.22-8.2-4.22h-28.8c-4.03,0-7.68,2.4-9.27,6.11l-18.98,44.29h-82.78L10.59,242.04,85.64,10.08h81.22l40.18,53.57c1.92,2.55,4.91,4.03,8.06,4.03.3,0,.6-.01.91-.04,3.48-.32,6.54-2.4,8.11-5.53l4.41-8.83h20.71c4.77,0,8.88-3.34,9.86-8.01l7.37-35.19h79.83M229.33,51.69h.04-.04M347.91,0h-83.76c-3.41,0-6.35,2.39-7.05,5.72l-7.85,37.48h-22.5c-2.73,0-5.22,1.54-6.44,3.98l-5.21,10.42L174.06,2.88C172.7,1.07,170.57,0,168.3,0h-84.76C80.42,0,77.65,2.02,76.69,4.98L.45,240.61c-.84,2.57-.15,5.39,1.76,7.31l73.97,73.97c1.36,1.35,3.19,2.11,5.1,2.11h85.87c2.88,0,5.49-1.71,6.62-4.36l19.74-46.04h28.8l33.85,47.38c1.35,1.89,3.54,3.02,5.86,3.02h91.17c3.44,0,6.4-2.43,7.06-5.81l45.11-229c.35-1.79,0-3.66-.96-5.21L354.02,3.38C352.7,1.28,350.39,0,347.91,0h0Z"/>
  <path class="st0" d="M168.3,324c-.95,0-1.9-.37-2.61-1.12l-72-75.6c-1.37-1.44-1.32-3.72.13-5.09,1.44-1.36,3.72-1.32,5.09.13l72,75.6c1.37,1.44,1.32,3.72-.13,5.09-.7.66-1.59.99-2.48.99Z"/>
  <path class="st0" d="M46.8,248.4H6.3c-1.99,0-3.6-1.61-3.6-3.6s1.61-3.6,3.6-3.6h40.5c1.99,0,3.6,1.61,3.6,3.6s-1.61,3.6-3.6,3.6Z"/>
  <path class="st0" d="M97.2,248.4h-21.6c-1.99,0-3.6-1.61-3.6-3.6s1.61-3.6,3.6-3.6h21.6c1.99,0,3.6,1.61,3.6,3.6s-1.61,3.6-3.6,3.6Z"/>
  <path class="st0" d="M111.6,194.4h-28.8c-1.99,0-3.6-1.61-3.6-3.6s1.61-3.6,3.6-3.6h28.8c1.99,0,3.6,1.61,3.6,3.6s-1.61,3.6-3.6,3.6Z"/>
  <path class="st0" d="M208.8,108h-47.7c-1.13,0-2.2-.53-2.87-1.43-.68-.9-.9-2.07-.59-3.15l13.09-45.81h-51.93c-1.99,0-3.6-1.61-3.6-3.6s1.61-3.6,3.6-3.6h56.7c1.13,0,2.2.53,2.87,1.43.68.9.9,2.07.59,3.15l-13.09,45.81h40.17l10.98-40.54c.52-1.92,2.48-3.07,4.41-2.53,1.92.52,3.05,2.5,2.53,4.41l-11.7,43.2c-.42,1.58-1.84,2.66-3.47,2.66Z"/>
  <path class="st0" d="M295.2,50.4h-41.4c-1.99,0-3.6-1.61-3.6-3.6s1.61-3.6,3.6-3.6h41.4c1.99,0,3.6,1.61,3.6,3.6s-1.61,3.6-3.6,3.6Z"/>
  <path class="st0" d="M248.4,93.6h-35.1c-1.99,0-3.6-1.61-3.6-3.6s1.61-3.6,3.6-3.6h35.1c1.99,0,3.6,1.61,3.6,3.6s-1.61,3.6-3.6,3.6Z"/>
  <path class="st0" d="M331.2,93.6h-61.2c-1.99,0-3.6-1.61-3.6-3.6s1.61-3.6,3.6-3.6h61.2c1.99,0,3.6,1.61,3.6,3.6s-1.61,3.6-3.6,3.6Z"/>
  <path class="st0" d="M194.4,272.7c-1.12,0-2.23-.53-2.94-1.51l-55.8-78.3c-.78-1.09-.89-2.54-.27-3.74.62-1.2,1.86-1.95,3.2-1.95h54c1.99,0,3.6,1.61,3.6,3.6s-1.61,3.6-3.6,3.6h-47.02l51.75,72.61c1.15,1.62.78,3.87-.84,5.02-.63.45-1.36.67-2.09.67Z"/>
  <path class="st0" d="M216,228.6c-1.13,0-2.25-.53-2.95-1.53l-23.4-33.3c-1.14-1.63-.75-3.87.88-5.02s3.87-.75,5.02.88l23.4,33.3c1.14,1.63.75,3.87-.88,5.02-.63.44-1.35.65-2.07.65Z"/>
  <path class="st0" d="M82.8,223.2h-33.3c-1.14,0-2.22-.55-2.9-1.47s-.88-2.12-.53-3.21l16.53-52.69h-32c-1.99,0-3.6-1.61-3.6-3.6s1.61-3.6,3.6-3.6h36.9c1.14,0,2.22.55,2.9,1.47s.88,2.12.53,3.21l-16.53,52.69h28.4c1.99,0,3.6,1.61,3.6,3.6s-1.61,3.6-3.6,3.6Z"/>
  <path class="st0" d="M152.1,57.6c-.33,0-.67-.04-1.01-.14-1.91-.55-3-2.55-2.45-4.46l14.4-49.5c.55-1.92,2.54-3.01,4.46-2.45,1.91.55,3,2.55,2.45,4.46l-14.4,49.5c-.45,1.57-1.89,2.59-3.46,2.59Z"/>
  <path class="st0" d="M96.3,248.4c-.33,0-.68-.04-1.02-.14-1.91-.56-3-2.56-2.44-4.47l30.6-104.4c.56-1.91,2.56-2.99,4.47-2.44,1.91.56,3,2.56,2.44,4.47l-30.6,104.4c-.46,1.57-1.9,2.58-3.46,2.58Z"/>
  <path class="st0" d="M228.6,275.4c-1.2,0-2.36-.59-3.05-1.67l-17.1-27c-.71-1.11-.75-2.51-.12-3.66s1.84-1.86,3.15-1.86h22.51c1.99,0,3.6,1.61,3.6,3.6s-1.61,3.6-3.6,3.6h-15.96l13.6,21.47c1.07,1.68.57,3.9-1.12,4.97-.6.38-1.27.56-1.93.56Z"/>
  <path class="st0" d="M262.8,248.4h-14.4c-1.99,0-3.6-1.61-3.6-3.6s1.61-3.6,3.6-3.6h14.4c1.99,0,3.6,1.61,3.6,3.6s-1.61,3.6-3.6,3.6Z"/>
  <path class="st0" d="M301.5,248.4h-17.1c-1.99,0-3.6-1.61-3.6-3.6s1.61-3.6,3.6-3.6h14.15L345.66,5.59c.39-1.95,2.25-3.23,4.23-2.82,1.95.39,3.21,2.28,2.82,4.23l-47.7,238.5c-.33,1.68-1.81,2.89-3.52,2.89Z"/>
  <path class="st0" d="M286.2,93.6c-.24,0-.49-.02-.74-.08-1.95-.4-3.2-2.31-2.79-4.26l9-43.2c.4-1.95,2.27-3.21,4.26-2.79,1.95.4,3.2,2.31,2.79,4.26l-9,43.2c-.35,1.7-1.84,2.87-3.51,2.87Z"/>
  <path class="st0" d="M350.1,323.1c-1.18,0-2.33-.58-3.02-1.64l-48.6-74.7c-1.09-1.66-.61-3.9,1.05-4.98,1.66-1.09,3.9-.6,4.98,1.05l48.6,74.7c1.09,1.66.61,3.9-1.05,4.98-.6.4-1.28.59-1.96.59Z"/>
  <path class="st0" d="M211.5,247.5c-.28,0-.57-.03-.86-.1-1.94-.47-3.12-2.42-2.65-4.35l25.2-103.5c.47-1.94,2.41-3.13,4.35-2.65,1.94.47,3.12,2.42,2.65,4.35l-25.2,103.5c-.4,1.65-1.86,2.75-3.49,2.75Z"/>
  <path class="st0" d="M192.6,194.4c-.31,0-.62-.04-.94-.12-1.92-.51-3.06-2.49-2.55-4.41l13.5-50.4c.43-1.58,1.85-2.67,3.48-2.67h30.6c1.99,0,3.6,1.61,3.6,3.6s-1.61,3.6-3.6,3.6h-27.84l-12.79,47.73c-.43,1.61-1.89,2.67-3.48,2.67Z"/>
  <path class="st0" d="M138.6,194.4c-.35,0-.7-.05-1.04-.15-1.91-.58-2.98-2.58-2.4-4.49l13.89-45.76h-22.15c-1.99,0-3.6-1.61-3.6-3.6s1.61-3.6,3.6-3.6h27c1.14,0,2.21.54,2.89,1.45.68.91.89,2.1.55,3.19l-15.3,50.4c-.48,1.56-1.9,2.56-3.45,2.56Z"/>
  <path class="st0" d="M118.8,273.6h-29.7c-1.99,0-3.6-1.61-3.6-3.6s1.61-3.6,3.6-3.6h29.7c1.99,0,3.6,1.61,3.6,3.6s-1.61,3.6-3.6,3.6Z"/>
  <path class="st0" d="M175.5,216h-21.6c-1.99,0-3.6-1.61-3.6-3.6s1.61-3.6,3.6-3.6h21.6c1.99,0,3.6,1.61,3.6,3.6s-1.61,3.6-3.6,3.6Z"/>
  <path class="st0" d="M97.2,57.6h-31.5c-1.99,0-3.6-1.61-3.6-3.6s1.61-3.6,3.6-3.6h31.5c1.99,0,3.6,1.61,3.6,3.6s-1.61,3.6-3.6,3.6Z"/>
  <path class="st0" d="M347.4,270.9c-.12,0-.24,0-.37-.04-.97-.2-1.6-1.16-1.39-2.13l26.1-125.1c.2-.97,1.15-1.61,2.13-1.39.97.2,1.6,1.16,1.39,2.13l-26.1,125.1c-.17.84-.92,1.43-1.76,1.43Z"/>
  <path class="st0" d="M377.1,128.7c-.12,0-.24,0-.35-.04-.98-.19-1.61-1.14-1.41-2.12l6.3-31.5c.19-.98,1.19-1.62,2.12-1.41.98.19,1.61,1.14,1.41,2.12l-6.3,31.5c-.17.86-.92,1.45-1.76,1.45Z"/>
</svg>